Patient4_TMGait_0pt8_01_left_38_EMG.mot
version=1
nRows=27
nColumns=33
inDegrees=no
endheader
time	1LAddLong	2LGlutMax	3LGlutMed	4LIliopsoas	5LSemiMemb	6LBicFemLong	7LRecFem	8LVastMed	9LVastLat	10LGasMed	11LTibAnt	12lTibPost	13LPeroneusLong	14LSol	15LExtDigLong	16LFlexDigLong	17RAddLong	18RGlutMax	19RGlutMed	20RIliopsoas	21RSemiMemb	22RBicFemLong	23RRecFem	24RVastMed	25RVastLat	26RGasMed	27RTibAnt	28RTibPost	29RPeroneusLong	30RSol	31RExtDigLong	32RFlexDigLong
42.84	0.014191	0.14984	0.3418	0.022278	-0.015717	-0.02655	-0.31662	-0.003967	-0.058746	-0.12039	0.003357	0.014496	-0.071411	0.93216	-0.014343	-0.019379	-0.080566	0.12238	0.97076	0.00351	0.49255	0.38757	-0.99335	0.16129	0.21515	0.014954	-0.97	-0.021515	0.56305	-0.11292	-0.002747	-0.007019
42.841	0.011902	0.13397	0.37964	0.002136	-0.022736	-0.034637	-0.3183	-0.001678	-0.065765	-0.12711	0.002441	0.023499	-0.037079	0.92483	-0.013733	-0.048981	-0.032806	0.24078	0.91934	0.002441	0.33371	0.17975	-0.79315	0.15076	-0.04303	0.00885	-0.53451	-0.018463	0.51697	-0.072327	-0.003662	-0.00946
42.842	0.010986	0.18738	0.44586	0.015106	0.016479	-0.062103	-0.31616	-0.000305	-0.069885	-0.14603	0.009613	-0.021667	-0.009308	0.77896	-0.001373	-0.031738	0.033722	0.23636	1.086	-0.047607	0.1236	0.083466	-0.64255	0.022125	-0.32364	0.006866	-0.017853	-0.019989	-0.10513	-0.091553	-0.00412	-0.002899
42.843	0.01297	0.26184	0.50491	-0.001831	0.015411	-0.030365	-0.32135	-0.010223	-0.068207	-0.15015	0.004883	-0.037079	0.021973	0.39749	-0.006409	-0.025482	0.074005	0.33783	0.99213	-0.059204	0.23132	0.025482	-0.45319	-0.001678	-0.34195	0.003967	0.096893	-0.015564	-0.12604	-0.045166	-0.00351	0.000763
42.844	0.012054	0.27588	0.55893	-0.00473	0.003357	-0.012054	-0.31509	-0.007172	-0.054626	-0.10437	0.007477	-0.089569	0.032806	0.001526	-0.045166	-0.018463	0.1265	0.45883	0.82398	-0.028381	0.050812	-0.098114	-0.31113	-0.20935	-0.2417	-0.00061	-0.15137	-0.018311	0.21881	0.020142	-0.003052	0.009308
42.845	0.014191	0.29419	0.58472	0.000916	0.001526	0.006866	-0.31448	-0.00885	-0.059967	-0.099182	0.005493	-0.025482	0.032501	-0.3981	-0.031433	-0.019226	0.11734	0.37125	0.92407	-0.044861	-0.15091	-0.031891	-0.32333	-0.21484	-0.12573	-0.00412	0.03891	-0.010376	0.26032	0.013733	-0.002747	0.005188
42.846	0.015106	0.20966	0.61905	0.006866	0.003204	-0.009308	-0.29114	-0.00946	-0.053406	-0.10513	-0.005493	0.20645	0.018005	-0.34058	-0.023651	-0.018768	0.061035	0.28488	0.66025	-0.02655	0.14496	0.043793	-0.56854	-0.071869	0.49377	0.006104	0.029755	-0.008698	0.2066	0.065765	-0.005035	0.007782
42.847	0.017242	0.15884	0.62958	0.008087	0.006866	-0.026703	-0.26016	-0.013885	-0.04425	-0.088348	0.00412	0.002289	0.011749	0.060577	-0.00061	-0.008545	0.011139	0.10819	0.28381	-0.037842	0.27847	-0.019684	-0.5632	-0.063934	0.6572	0.001221	0.10498	-0.005951	0.10254	0.066986	-0.004272	0.00473
42.848	0.014954	0.15747	0.62668	0.018158	0.002747	-0.003052	-0.28	-0.010071	-0.040436	-0.066223	-0.005798	0.017395	0.024109	0.27939	0.016785	-0.007629	-0.011597	0.13397	0.4454	-0.088348	0.30456	0.032043	-0.34561	0.073242	0.34805	-0.001373	0.3804	-0.001373	0.037384	0.086823	0.000153	0.000153
42.849	0.015106	0.16922	0.6282	0.00351	0.009308	-0.010834	-0.25223	-0.014648	-0.035553	-0.02243	-0.006714	-0.033417	0.039063	0.25818	0.012512	-0.015717	0.006714	0.2739	0.61523	-0.025024	0.28717	0.082092	-0.066833	0.60394	0.023041	-0.011292	0.35431	0.000916	-0.065308	0.098572	-0.005188	-0.005646
42.85	0.020142	0.16403	0.63049	0.001373	0.006561	-0.044556	-0.24338	-0.018311	-0.032501	0.11581	-0.004425	-0.027313	0.024719	0.21271	0.016785	-0.003357	0.028687	0.30777	0.42541	0.005341	0.09491	0.068665	0.13138	1.2524	0.12238	0.001221	0.26337	0.004272	-0.015259	-0.069275	-0.003052	-0.004425
42.851	0.026093	0.20065	0.62943	-0.00473	0.012817	-0.051422	-0.22263	-0.015869	-0.027313	0.17075	0.006256	-0.014343	0.032349	0.14557	0.022888	0.007935	0.10025	0.37506	0.47104	-0.004425	-0.080566	0.093384	0.1207	0.961	0.15915	0.008392	-0.14252	0.005951	0.0354	-0.14206	0.002441	0.005188
42.852	0.021362	0.20187	0.63034	0.006409	0.005646	-0.023193	-0.18204	-0.012054	-0.036621	0.16861	0.005493	-0.005646	-0.033722	0.13046	0.023804	0.008545	0.15091	0.33371	0.75226	-0.068817	-0.12054	0.074005	0.11185	0.59418	0.016174	0.009766	-0.45105	0.004883	0.12528	-0.086212	-0.004425	0.005646
42.853	0.024567	0.19959	0.68344	0.000458	-0.031433	-0.011139	-0.16846	-0.010681	-0.041199	0.075989	0.005341	-0.013428	-0.00473	0.10056	0.031586	0.015717	0.11581	0.27679	0.68558	0.005951	-0.12787	0.10147	0.003662	0.14313	-0.098724	0.015411	-0.867	0.014648	-0.10712	-0.025177	-0.00412	0.006866
42.854	0.019226	0.17639	0.68726	-0.008392	-0.037537	-0.023804	-0.13229	-0.006561	-0.02243	-0.010529	0.005188	0.009003	0.035095	0.07431	0.042267	0.016632	-0.028534	0.17593	0.27496	0.052185	-0.074005	0.17212	-0.26154	-0.21896	-0.12695	0.013733	-0.59036	0.10605	-0.49362	-0.11108	-0.003662	0.014954
42.855	0.028534	0.17181	0.66315	-0.002289	-0.01236	-0.056763	-0.12695	-0.025787	-0.016937	-0.18723	-0.003204	0.00473	0.029907	-0.092773	0.041046	0.006256	-0.088501	0.271	0.24292	-0.028687	0.20783	0.085602	-0.39703	-0.37674	-0.12817	0.015564	-0.34546	-0.31357	0.020447	-0.15854	-0.003815	0.016022
42.856	0.021057	0.1799	0.62622	0.029602	0.010071	-0.049438	-0.10223	-0.01358	-0.036316	-0.32089	-0.006561	0.005188	0.10635	-0.20325	0.043488	0.051117	-0.098267	0.40985	0.40832	-0.091553	0.30563	-0.027618	-0.51483	-0.38864	-0.055847	0.01297	-0.46875	0.031433	0.33417	0.01358	-0.002289	0.00946
42.857	0.009003	0.16312	0.62195	0.016327	0.009308	-0.057373	-0.055695	-0.009308	-0.027161	-0.31555	0.00061	0.04776	-0.04303	0.005035	0.024719	-0.10483	-0.036163	0.36682	0.16281	-0.12863	-0.034027	-0.046387	-0.63507	-0.27618	-0.079193	0.012512	-0.42511	0.11795	0.43778	0.14114	-0.002289	0.004578
42.858	0.009155	0.17517	0.62958	0.006256	0.009918	-0.09201	-0.041046	-0.001678	-0.033417	-0.16907	0.008545	0.31845	-0.049744	0.084229	0.005035	-0.13931	-0.002289	0.30655	0.064545	-0.1619	-0.12558	-0.13718	-0.3862	-0.17563	-0.24658	0.022278	-0.38818	0.04837	0.15411	0.17197	-0.002289	0.001984
42.859	0.00473	0.20538	0.62744	0.003815	0.013428	-0.13947	-0.02121	-0.000153	-0.040588	-0.024261	0.001678	-0.003815	0.041046	0.14923	0.018158	0.092163	0.037231	0.36865	0.008545	-0.095673	-0.21316	-0.2182	-0.26764	-0.1442	-0.15839	0.010071	-0.20493	0.025177	-0.46143	0.12619	-0.001678	-0.014648
42.86	0.005188	0.23834	0.62439	0.009766	0.02121	-0.12314	-0.009613	-0.008087	-0.027466	0.098267	-0.006714	-0.23025	0.068359	0.21668	0.027466	0.1387	0.038452	0.32318	0.13062	0.014496	-0.07843	-0.13321	-0.35172	-0.21149	-0.055847	0.012665	-0.2005	0.01297	-1.1758	0.075378	-0.002747	-0.009155
42.861	0.022736	0.21164	0.63004	0.010986	0.003967	0.007324	0.026398	-0.002747	-0.027466	0.87708	-0.015259	-0.025482	0.10651	-0.28564	0.002136	0.061951	0.002289	0.30746	0.4718	0.17777	0.070801	-0.002136	-0.42007	-0.41016	0.11627	0.00885	-0.007477	0.010376	-0.82672	0.10757	-0.009155	-0.014343
42.862	0.011749	0.18692	0.61722	0.008392	0.001831	0.049133	0.071564	-0.00412	-0.033417	0.64529	-0.020905	0.19974	0.23773	-0.84228	0.014801	0.018768	-0.086975	0.18982	0.023651	0.17761	0.11581	0.068512	-0.20905	-0.71182	0.20096	0.010681	0.13184	0.009918	-0.44937	0.10193	-0.002899	-0.011292
42.863	0.014496	0.18219	0.60928	0.005951	-0.000763	0.057068	0.081787	0.005646	-0.029297	-0.12512	-0.010223	0.085144	0.24368	-0.90973	-0.016022	0.24002	-0.14008	0.068054	0.15076	0.060425	0.024414	0.13123	0.062561	-0.29495	0.18387	0.01358	0.1445	0.007782	1.136	0.13397	-0.001221	-0.009613
42.864	0.019379	0.19562	0.60852	-0.003815	-0.013885	-0.031891	0.093231	-0.002289	-0.017853	0.066376	-0.005798	-0.023346	0.097198	-1.3965	-0.029602	-0.43823	-0.099182	-0.12558	-0.10117	-0.003052	0.13809	0.26489	0.25665	0.040131	0.057068	0.00885	0.009766	0.005951	1.216	0.1799	-0.003204	-0.005951
42.865	0.014954	0.19241	0.5867	0.001984	-0.014191	-0.10346	0.060272	-0.001526	-0.022736	0.56763	-0.00351	-0.015106	0.079498	-1.048	0.006104	0.016785	-0.049133	-0.29831	-0.42923	0.036316	0.16861	0.2977	0.50278	0.26718	0.25009	0.006409	-0.072021	0.007935	0.99014	0.053558	-0.000916	-0.006104
42.866	0.024414	0.15533	0.57739	-0.007477	0.009918	-0.13153	0.073242	0.001221	-0.026245	-0.16724	-0.009308	-0.022888	0.047455	-0.24933	0.028381	0.5275	-0.000458	-0.45166	-0.13886	0.063782	0.049438	-0.046234	0.62088	0.26932	0.289	0.00824	-0.09201	0.011444	0.4657	-0.023193	-0.001831	0.000763
